<?xml version="1.0" encoding="UTF-8" standalone="no"?>
<!-- Created with Inkscape (http://www.inkscape.org/) -->

<svg
   viewBox="0 0 266.88919 157.25439"
   version="1.1"
   id="svg5"
   xml:space="preserve"
   sodipodi:docname="Neues Dokument 1.2024_03_20_07_44_29.0.svg"
   xmlns:inkscape="http://www.inkscape.org/namespaces/inkscape"
   xmlns:sodipodi="http://sodipodi.sourceforge.net/DTD/sodipodi-0.dtd"
   xmlns="http://www.w3.org/2000/svg"
   xmlns:svg="http://www.w3.org/2000/svg"><sodipodi:namedview
     id="namedview7"
     pagecolor="#ffffff"
     bordercolor="#000000"
     borderopacity="0.25"
     inkscape:showpageshadow="2"
     inkscape:pageopacity="0.0"
     inkscape:pagecheckerboard="0"
     inkscape:deskcolor="#d1d1d1"
     inkscape:document-units="mm"
     showgrid="false" /><defs
     id="defs2" /><g
     inkscape:label="Ebene 1"
     inkscape:groupmode="layer"
     id="layer1"
     transform="translate(-5.2023924,-3.2542229)"><path
       id="path1179"
       style="fill:#86a3bf;fill-opacity:1;stroke:none;stroke-width:3.96874;stroke-linecap:square;paint-order:fill markers stroke"
       d="m 113.65292,3.254223 a 55.757091,55.757091 0 0 0 -55.756223,55.756296 55.757091,55.757091 0 0 0 0.38008,6.171758 c -21.02845,3.77592 -36.8048,20.75997 -36.8048,41.265803 0,23.29673 20.36273,42.05192 45.65638,42.05192 h 64.718103 3.54115 94.652 c 23.29677,0 42.05195,-17.43365 42.05195,-39.08808 0,-21.519074 -18.52391,-38.860207 -41.61786,-39.07646 A 48.28449,48.28449 0 0 0 182.57396,28.121687 48.28449,48.28449 0 0 0 162.67208,32.446578 55.757091,55.757091 0 0 0 113.65287,3.254223 Z"
       inkscape:export-filename="Downloads\logo.svg"
       inkscape:export-xdpi="38.068237"
       inkscape:export-ydpi="38.068237" /><path
       id="path351"
       style="fill:#c6e0f7;fill-opacity:1;stroke:none;stroke-width:3.96874;stroke-linecap:square;paint-order:fill markers stroke"
       d="m 97.383327,15.262719 a 55.757091,55.757091 0 0 0 -55.75622,55.756296 55.757091,55.757091 0 0 0 0.38008,6.171758 c -21.02845,3.77592 -36.8047945,20.75997 -36.8047945,41.265797 0,23.29674 20.3627245,42.05193 45.6563745,42.05193 h 64.718103 3.54115 94.652 c 23.29677,0 42.05195,-17.43365 42.05195,-39.08809 0,-21.519068 -18.52391,-38.860201 -41.61786,-39.076454 A 48.28449,48.28449 0 0 0 166.30437,40.130183 48.28449,48.28449 0 0 0 146.40249,44.455074 55.757091,55.757091 0 0 0 97.383277,15.262719 Z" /><path
       id="path392"
       style="fill:#41515a;fill-opacity:1;stroke-width:0.999999"
       d="m 86.134947,16.426926 a 55.757091,55.757091 0 0 0 -5.53041,1.44384 c 0.55384,1.03917 1.373,2.512516 2.34042,4.191475 5.29591,9.191047 13.91717,27.122471 19.211753,39.958284 0.95827,2.32316 1.83638,4.445001 1.9513,4.714958 0.12303,0.289156 -0.94218,0.809652 -2.59261,1.26659 -2.740663,0.758774 -19.893673,6.144737 -21.353733,6.705017 -0.56789,0.217918 -1.04461,-0.323741 -2.06499,-2.345077 -1.95214,-3.867204 -5.66631,-8.277935 -10.68617,-12.690181 -8.86868,-7.795203 -11.78383,-9.004511 -21.60695,-8.962761 -0.09256,3.93e-4 -0.17501,0.004 -0.26665,0.0047 a 55.757091,55.757091 0 0 0 -1.2976,3.512447 c 1.27406,0.0485 2.41617,0.173364 3.39101,0.380339 10.26743,2.179945 20.56152,9.852929 24.7065,18.416447 0.99005,2.045402 1.72716,3.781679 1.63866,3.858679 -0.08854,0.077 -2.86211,1.20998 -6.16344,2.517676 -7.35522,2.913489 -18.66111,8.57313 -24.82588,12.427665 -15.49782,9.689996 -28.37488,22.175606 -36.7744985,35.465016 0.531839,2.3075 1.272462,4.54099 2.194698,6.68952 2.4193805,-3.78474 5.0775905,-7.56049 7.4083305,-10.42727 11.27446,-13.86736 26.07239,-25.580164 42.88266,-33.942635 6.16124,-3.064988 15.79311,-7.138065 16.87907,-7.138065 1.24623,0 4.3157,13.530848 4.3372,19.11873 0.02768,7.21388 -4.70562,24.57946 -12.78526,46.90773 -1.43053,3.95329 -2.79348,8.00777 -4.06177,12.00857 h 4.81366 c 1.98587,-6.17545 4.2777,-12.34875 6.83524,-18.31361 9.6641,-22.53928 11.86714,-37.28998 8.21707,-55.016281 -0.75117,-3.647998 -1.20935,-6.781491 -1.01803,-6.962883 0.55981,-0.530733 22.886273,-7.524088 24.020763,-7.524088 1.07998,0 10.34004,27.461332 18.0666,53.577092 3.14712,10.63726 6.41723,22.40663 9.57771,34.23977 h 6.74377 c -0.32722,-1.23345 -0.65464,-2.46803 -0.9803,-3.66386 -6.31225,-23.179 -18.21878,-60.751756 -25.03516,-79.003446 -1.36243,-3.64803 -2.39368,-6.715894 -2.29185,-6.817671 0.45634,-0.456318 21.83937,-5.44618 23.33862,-5.44618 0.26061,0 1.20423,1.45064 2.09703,3.223576 5.13436,10.195778 16.15458,22.297973 33.5132,36.803441 12.1457,10.14937 17.9165,15.31965 23.02805,20.63026 5.61445,5.83311 14.24411,16.58758 17.03256,21.22713 2.1147,3.51854 4.05322,8.08415 5.58363,12.94908 1.53731,-0.0945 3.05037,-0.26626 4.5372,-0.50901 -2.37866,-6.85981 -5.96807,-14.20324 -9.84902,-20.07216 -6.77482,-10.24515 -13.6479,-17.06729 -43.44437,-43.121917 -14.26875,-12.476918 -16.56341,-14.70138 -19.26549,-18.680563 -2.34427,-3.452251 -6.96754,-12.159389 -6.96754,-13.121679 0,-0.323005 0.95712,-0.679977 2.33423,-0.870748 1.28385,-0.177844 4.33506,-0.596107 6.78046,-0.929659 2.44546,-0.333553 8.40054,-0.854282 13.2333,-1.157036 9.55594,-0.598641 20.83866,-0.121823 28.33936,1.19786 6.45931,1.13646 13.24634,3.349011 18.09812,5.787244 a 48.28449,48.28449 0 0 0 -2.83394,-5.479769 c -0.48725,-0.236601 -0.97978,-0.474194 -1.53944,-0.732772 -10.29905,-4.758456 -26.49526,-6.997865 -43.64798,-6.035807 -7.26451,0.407447 -21.83816,2.019434 -22.63118,2.503206 -0.17104,0.104335 -0.71439,-1.166665 -1.20716,-2.824117 -3.02554,-10.176493 -3.42738,-18.293398 -1.22111,-24.187671 a 55.757091,55.757091 0 0 0 -4.7346,-4.389396 c -2.47297,3.696912 -3.16806,8.226243 -2.46393,14.892631 0.39859,3.773625 2.74394,14.402796 3.68918,16.719393 0.24186,0.592767 -0.36785,0.840451 -3.622,1.472262 -2.15212,0.417845 -7.59539,1.649821 -12.09642,2.737817 -4.50099,1.087988 -8.24609,1.915951 -8.32249,1.839681 -0.0763,-0.07627 -1.41716,-3.229903 -2.97966,-7.007841 C 100.29828,42.733562 93.493837,28.61131 88.082117,19.605027 c -1.01943,-1.696555 -1.38646,-2.271731 -1.94717,-3.178101 z" /></g></svg>
